<mxfile host="65bd71144e">
    <diagram id="HXaB_vaQAMFZV0U3eQgD" name="Page-1">
        <mxGraphModel dx="989" dy="632" grid="0" gridSize="10" guides="1" tooltips="1" connect="1" arrows="1" fold="1" page="1" pageScale="1" pageWidth="850" pageHeight="1100" math="0" shadow="0">
            <root>
                <mxCell id="0"/>
                <mxCell id="1" parent="0"/>
                <mxCell id="2" value="" style="shape=image;verticalLabelPosition=bottom;labelBackgroundColor=default;verticalAlign=top;aspect=fixed;imageAspect=0;image=data:image/png,iVBORw0KGgoAAAANSUhEUgAAAGEAAAAYCAYAAADqK5OqAAAAAXNSR0IArs4c6QAAAARnQU1BAACxjwv8YQUAAAAJcEhZcwAADsQAAA7EAZUrDhsAAAvcSURBVGhDldlVj5XJFgbgamRwd3eH4BIkBGaAcEPCr+IHccENEEiQENzd3d2lz37q5N35pofhcFZSKVv6rlVV3+7uOHz4cOfMmTNL7969a+vs7Cw/fvwo3bp1K6ijo6M2a3qEJ/tZj4w+rUePHnXPengiG12/Q9FH7vv371WvHhmjzBEb9KeRRZmH8CVeer59+1Z7ayhyiRVFPv5knD7+JM6uuuIDf4NDx507dzqHDh1aJ7169arM3bt3rwIUWNdHWbPPmGF8gmgaNqYr8ybh/10iz6/I6BOEPfPsxVbmkWvud+VNzF1lzQOecUD7+vVruxjI4THW4wt+qGkD2aMj66jj3bt3nRQwgN6/f197FOUoDsXBGOKME9SzZ8/KEwPWja13NUpP09H/RWSTYKQHhD7ANG0kYGvNHjV9RMb4zfVNG00eJCbEF2P7+Mz79OnTlknf1X7sNvXW1gK9rgD7zZs35dKlS7VP0J8/f67OAfPLly//yDJnRo4cWSZOnFhGjx5d+vbtW/m1GI+MtdD/m4Sm46FmUF33sxdAmvta0xcUnshHDg7RJf5Xr16V+/fvl2fPntVCiJ7JkyeXCRMm1PhhJT464KNv2m3aqeufPn3qtIG5dTWV3bt3l7t371aDGCjgiKvq48eP5Y8//qjCZDR88+bNKytXrizeFhXRBDjG8FaDrcaJnLDfoVQgHQko838E1Bgj+02eUNbpBlroZ3KJs3VrlBs3bpTWO1qxEqciHTJkSI1/8eLFZfDgwfVmCJHV8NKV4v4bRq3Flq3O8uHDh/LgwYNy9OjR8uLFi+oc0GX89evXbYNjxowp3pAkQz9jxoyaAA4AlxMMcdxcz0Yz2Mj/DrGbYgjxRyWiBCVIYy2UBLJPXgMK3gDBx1Yx1kKzlvXIsv/48eNy9erVcu7cuXLr1q2KjTidjDlz5pQ///yzTJkypZ4E+ugnj4ef5hrb/MNjXHlbDJ2MUgqsp0+f1k1vg6QcP368PHz4sDpGYPny5fXoMZbkWe/fv38ZNGhQTYQxg2/fvq1JFGDkET7OsWnPMf4VOf704c9bQJ6/Gn+RNboHDBjQDpJ/YnHFvnz5sp1QvAoBXxI0adKkKstX9qylEIF/4sSJ8uTJk7oXHjFu2LChngRJFA+99tnhL/t8yRqMnJ5cWx2tIOrDTNgiIcYZ9j44evfu3avXjBPw119/lWnTprUduHbtWhuk2bNn1wYIwdKxc+fOGqikpTLwcMI+2Zs3b1bnAIVn1KhRFZDhw4fXAJxE+lUdHn6OGDGi2nj+/HkFmpw1VTl16tTSr1+/GocCUkyXL1+uPRk+2AcWHv7xWWwKIknJCbh48WI5depU9YOMfclhk56tW7dWm/TDjK9siAmPwuajOTt8dIUnET0IUCqLxplzwrVEgWzJ5MCBA8u4ceOqAXzuRQ4yTPn48eOrrLuTcesXLlyoujza9Kg0gTB+9uzZ6rgE5xizKbGOfk4Ief65Buyz4UOALoUAKDzsmas0IKl84NElWXwQA/tO0KNHj9pXJVCc4FSyYvQ2OgEnT56s+hUH4LwL4scLfMUpYbmuAC5WRaRnQ8HxbdiwYRUbOBqz3UrO3z/xtCSAE8YAEzCQ9eaMSoKmWhnUgEWHoCUIsJzgvAqgQ2KdMMGMHTu2HmdVuHr16soDRPpVnuQIkg3BKQZgTp8+vTanKqdGMvkrAa6NY8eOlf3791d7wFq3bl3Ztm1b2bx5c71WUxj6+fPn17j4rogAysc9e/ZUX2bNmlUWLlxYk5grUWziIeeUAprPSMLcGKtWraoPtjjZIksueOvrC5YkyJBeoBRyHjHCuMpUJQgoKskegx5mmU0gkugayxEkCyg2gE/W2wKMFStWlEWLFlVABQV4gXPYFUOvquObClq7dm1Zs2ZNWbZsWbWbq07yYsMJO3PmTLUP4E2bNpUFCxbUZOBDABOHk00vkkCFtW/fvnLkyJGqm2+ajxJ+aGJUkPTBxKlzVSKAi8k7wbZiUYTAx8vHnPx2EjhNqZbHDIiAyBogVaQ5cCRJcxVQnC8mvPatcwoPsF0fEiSxHJZU1cVJoKgSsnkXOKhCOQsYp1K1CcBXCECMyfBVcwoBA9zr169XO/TiB4w9SRGfAsEHHEDyh36P765du+qVyOctW7aUJUuWVB/zBvLNiUvBSMrt27erPj4oOF+MejHjtQdwBUXOWwJL1M1GEmCco5xHTBCOOSBVJaVA5gzF7lHHDij46LHOKc5Zc8WoNno9wkAWIBn6UlnsOSF6weSO9njjc+2oMIDGDj8RgHMSgSX5gOO3JNAFPLZVvyJBZCSAXW/UwYMH6yPuClV47Eswfn4YAx4Giog9fvgAoBe4fryS5WN+W5BVAPbyIMMb1ZOAOb0ACKnYVKQqFzggVR4elWmfURWJj2P2OMxZCQAEeWRPcJGxj+gBfL6U8HAWH0fp0uMHdgpHhQmeXmtsSZ73CKhOJn49GwGUjFMCCDoB5QPC9SN5ZMTqQ+DAgQPl0KFD9dHnHz3itA8TcZPhQ94XxWpfHBp7bNCr8PR420kAqkmUCwDAsmpd9igmKGiB4FHVqRaOWHeVqEyPmiQCyj1Mln6O4rNO1poqEpzfIx5CV4Ig3MHemnyWCsrpUbl84isfyEughAlQIoBeg2vxsYWHDn7zzyl1JcUncx8Rioev7HojVKwCkizJIw8Tsu55NsVDHsh8JAcTtptJD465wiSBb6h+omoCIaRCAGiOiYDgOSQ4a5IBBM31peqMkUAcZ0kUAKdUW3S5FgSvssioeLwqkS5XWx7QZkHQJQiBC8iaK1GASOIkQHDssImHb6dPn65vAPAkNZ+YTg3w8ADftekLzZi/ClSxSKAkSbqEoLlz51Y/cn3DRGzi0dNvzSOfK1MMiojdFAi+9pvAIOBzZTAmmHwby7IArRsDScYFofKvXLnSvhpyhQnGfaw3d4dq5CTi/Pnz9RvcV4w5ENavX1+WLl1aeRSFxp4ql1DOa+zkmhJ0Hl/+4vXg56pxxUmy60XVAoePALRPnl8bN26sX1veEU1BqFzxix2/+AOmsZj5kGK1542BqSJTSPQrIA91cAzuqKOluFOFJwEc9mUBFEYE7qVXZYIn7LQA3YkJ6EBjTIAqB3HMZ6R1xCEVmS8ksmzYFygnBUFOUbChiiQCwPzIO+GK8ZDSIzDgkeeLE+CKI+tk0h8ZVW/NqSAHsB07dlT//o2c7Jw6cZLzm4HvTpWY6FeYfMDDf0VClk1+S7RkiI8sGdTRYu40Uf0A5JwgAI5Ro0D2KDaXQTypVOSISSYeFUDeXDXqY0PlqShJN6cXjz7OGQNTkthBfLCf6kmQ+NgCDBsaHXSLRbPmGnIF5sTyW4H5/Ny+fXvV+W9Elh90xlf+8EE81vkh2XAwzkmQeLjyKVgkPn6h+gc8QRCyqCfkJJgTsI+sGVsLMYSsR55zxl2bdbpjiwx5+uzpM+Y0e7EZ/ibZAzJA8QsMCTS89DuZrqG9e/fWk676XTOuLKfL1fMr4jOfNNT0w1g8GooPiM/BJxiIL7yoxiYJAZURDHWjJYCaBtJnD5GJgfA25xlr4UdZU0UJKgGQA7AeuHpA2MebPb2rQHWrMsDqwwcACXK94vG4kvGoen/yjpD5FaVQYpN+Pd8Sf3yyhswTM0rcwRplv15Hqskm5RTZ1FsTDAWUImsxioyTtK4A06GFrIXwxkZzTpc+ejOWLAEaAwW/xPiDmQr3NqhooOb6RN6FvB3uavey+9xV5HFN3L8idhDb8Yt9YzjET2SMgkXWzZt4IuOqs7VQk8ARmwJs3msJJkfSXGsmQUP2A1qTmg7G4Z/xNck+XnZiL06zo1nzV1I/pnxpqXq+k7UnGcB3Pfly8dUlAX4oJq58rfyKYILYhgss4kfXBLJt3X78R5nHt8z19R/9nFBp/qvmu5yj+Q7GlIREWIuhGPgZWRdA21ir0dMke9FlL7zWzI2RsbUAZs5nPrnz+e3B9eB7DBVWPpOdDu+AhzM/5uiJ7a5AdqXEjfRiyrXTpPitZc5OV9yy99++o/wHVGBJdMhmyXUAAAAASUVORK5CYII=;" vertex="1" parent="1">
                    <mxGeometry x="260" y="330" width="282.92" height="70" as="geometry"/>
                </mxCell>
                <mxCell id="3" value="" style="endArrow=none;html=1;strokeWidth=4;fillColor=#1ba1e2;strokeColor=#006EAF;" edge="1" parent="1">
                    <mxGeometry width="50" height="50" relative="1" as="geometry">
                        <mxPoint x="270" y="400" as="sourcePoint"/>
                        <mxPoint x="280" y="330" as="targetPoint"/>
                    </mxGeometry>
                </mxCell>
                <mxCell id="4" value="" style="endArrow=none;html=1;strokeWidth=4;fillColor=#1ba1e2;strokeColor=#006EAF;" edge="1" parent="1">
                    <mxGeometry width="50" height="50" relative="1" as="geometry">
                        <mxPoint x="300" y="400" as="sourcePoint"/>
                        <mxPoint x="310" y="330" as="targetPoint"/>
                    </mxGeometry>
                </mxCell>
                <mxCell id="5" value="" style="endArrow=none;html=1;strokeWidth=4;fillColor=#1ba1e2;strokeColor=#006EAF;" edge="1" parent="1">
                    <mxGeometry width="50" height="50" relative="1" as="geometry">
                        <mxPoint x="330" y="400" as="sourcePoint"/>
                        <mxPoint x="340" y="330" as="targetPoint"/>
                    </mxGeometry>
                </mxCell>
                <mxCell id="7" value="" style="endArrow=none;html=1;strokeWidth=4;fillColor=#1ba1e2;strokeColor=#006EAF;" edge="1" parent="1">
                    <mxGeometry width="50" height="50" relative="1" as="geometry">
                        <mxPoint x="360" y="400" as="sourcePoint"/>
                        <mxPoint x="370" y="330" as="targetPoint"/>
                    </mxGeometry>
                </mxCell>
                <mxCell id="8" value="" style="endArrow=none;html=1;strokeWidth=4;fillColor=#1ba1e2;strokeColor=#006EAF;" edge="1" parent="1">
                    <mxGeometry width="50" height="50" relative="1" as="geometry">
                        <mxPoint x="390" y="400" as="sourcePoint"/>
                        <mxPoint x="400" y="330" as="targetPoint"/>
                    </mxGeometry>
                </mxCell>
                <mxCell id="9" value="" style="endArrow=none;html=1;strokeWidth=4;fillColor=#1ba1e2;strokeColor=#006EAF;" edge="1" parent="1">
                    <mxGeometry width="50" height="50" relative="1" as="geometry">
                        <mxPoint x="420" y="400" as="sourcePoint"/>
                        <mxPoint x="430" y="330" as="targetPoint"/>
                    </mxGeometry>
                </mxCell>
                <mxCell id="10" value="" style="endArrow=none;html=1;strokeWidth=4;fillColor=#1ba1e2;strokeColor=#006EAF;" edge="1" parent="1">
                    <mxGeometry width="50" height="50" relative="1" as="geometry">
                        <mxPoint x="450" y="400" as="sourcePoint"/>
                        <mxPoint x="460" y="330" as="targetPoint"/>
                    </mxGeometry>
                </mxCell>
                <mxCell id="11" value="" style="endArrow=none;html=1;strokeWidth=4;fillColor=#1ba1e2;strokeColor=#006EAF;" edge="1" parent="1">
                    <mxGeometry width="50" height="50" relative="1" as="geometry">
                        <mxPoint x="480" y="400" as="sourcePoint"/>
                        <mxPoint x="490" y="330" as="targetPoint"/>
                    </mxGeometry>
                </mxCell>
                <mxCell id="12" value="" style="endArrow=none;html=1;strokeWidth=4;fillColor=#1ba1e2;strokeColor=#006EAF;" edge="1" parent="1">
                    <mxGeometry width="50" height="50" relative="1" as="geometry">
                        <mxPoint x="510" y="400" as="sourcePoint"/>
                        <mxPoint x="520" y="330" as="targetPoint"/>
                    </mxGeometry>
                </mxCell>
                <mxCell id="13" value="" style="shape=cube;whiteSpace=wrap;html=1;boundedLbl=1;backgroundOutline=1;darkOpacity=0.05;darkOpacity2=0.1;" vertex="1" parent="1">
                    <mxGeometry x="280" y="141" width="30" height="140" as="geometry"/>
                </mxCell>
                <mxCell id="14" value="" style="shape=cube;whiteSpace=wrap;html=1;boundedLbl=1;backgroundOutline=1;darkOpacity=0.05;darkOpacity2=0.1;" vertex="1" parent="1">
                    <mxGeometry x="310" y="141" width="30" height="140" as="geometry"/>
                </mxCell>
                <mxCell id="15" value="" style="shape=cube;whiteSpace=wrap;html=1;boundedLbl=1;backgroundOutline=1;darkOpacity=0.05;darkOpacity2=0.1;" vertex="1" parent="1">
                    <mxGeometry x="502" y="141" width="30" height="140" as="geometry"/>
                </mxCell>
                <mxCell id="16" value="" style="endArrow=classic;html=1;strokeWidth=2;fillColor=#008a00;strokeColor=#005700;" edge="1" parent="1">
                    <mxGeometry width="50" height="50" relative="1" as="geometry">
                        <mxPoint x="280" y="331" as="sourcePoint"/>
                        <mxPoint x="291" y="286" as="targetPoint"/>
                    </mxGeometry>
                </mxCell>
                <mxCell id="17" value="" style="endArrow=classic;html=1;strokeWidth=2;fillColor=#008a00;strokeColor=#005700;" edge="1" parent="1">
                    <mxGeometry width="50" height="50" relative="1" as="geometry">
                        <mxPoint x="308" y="332" as="sourcePoint"/>
                        <mxPoint x="319" y="287" as="targetPoint"/>
                    </mxGeometry>
                </mxCell>
                <mxCell id="18" value="" style="endArrow=classic;html=1;strokeWidth=2;fillColor=#008a00;strokeColor=#005700;" edge="1" parent="1">
                    <mxGeometry width="50" height="50" relative="1" as="geometry">
                        <mxPoint x="518" y="328" as="sourcePoint"/>
                        <mxPoint x="529" y="283" as="targetPoint"/>
                    </mxGeometry>
                </mxCell>
                <mxCell id="19" value="&lt;font style=&quot;font-size: 21px;&quot;&gt;...&lt;/font&gt;" style="text;html=1;strokeColor=none;fillColor=none;align=center;verticalAlign=middle;whiteSpace=wrap;rounded=0;" vertex="1" parent="1">
                    <mxGeometry x="391" y="201" width="60" height="30" as="geometry"/>
                </mxCell>
                <mxCell id="20" value="Sequence vector 512x1x26" style="text;html=1;strokeColor=none;fillColor=none;align=center;verticalAlign=middle;whiteSpace=wrap;rounded=0;fontSize=21;" vertex="1" parent="1">
                    <mxGeometry x="320" y="87" width="182" height="30" as="geometry"/>
                </mxCell>
            </root>
        </mxGraphModel>
    </diagram>
</mxfile>